<?xml version="1.0" encoding="utf-8"?>
<!-- Generator: Adobe Illustrator 23.0.1, SVG Export Plug-In . SVG Version: 6.00 Build 0)  -->
<svg version="1.1" id="Ebene_1" xmlns="http://www.w3.org/2000/svg" xmlns:xlink="http://www.w3.org/1999/xlink" x="0px" y="0px"
	 viewBox="0 0 1252 378" style="enable-background:new 0 0 1252 378;" xml:space="preserve">
<style type="text/css">
	.st0{fill:#1A9DD9;}
	.st1{fill:#FFFFFF;}
	.st2{fill:#A3A3A3;}
</style>
<path class="st0" d="M746.6,372.2H18.8c-5.5,0-10-4.5-10-10V16.7c0-5.5,4.5-10,10-10h727.8c5.5,0,10,4.5,10,10v345.5
	C756.6,367.7,752.2,372.2,746.6,372.2z"/>
<g>
	<g>
		<path class="st1" d="M101.3,318.3c-1.6-1.5-2.5-3.4-2.5-5.7v-32.8c0-2.5,0.8-4.5,2.5-6c1.6-1.5,3.6-2.3,5.8-2.3h30.6
			c15.1,0,28.9-3.7,41.5-11.1c12.6-7.4,22.6-17.4,30-30c7.4-12.6,11.1-26.4,11.1-41.5c0-15.1-3.7-28.9-11.1-41.5
			c-7.4-12.6-17.4-22.6-30-30c-12.6-7.4-26.4-11.1-41.5-11.1h-30.6c-1.3,0-2.3,0.4-3.2,1.3c-0.9,0.9-1.3,2-1.3,3.2v23
			c0,2.3-0.8,4.1-2.5,5.7c-1.6,1.5-3.6,2.3-5.8,2.3H61.5c-2,0-3.8-0.8-5.5-2.5c-1.6-1.6-2.5-3.5-2.5-5.5V65.5c0-2.3,0.8-4.2,2.5-5.8
			c1.6-1.6,3.5-2.5,5.5-2.5h76.2c23.9,0,45.9,5.9,66,17.7c20.1,11.8,36.1,27.8,47.9,47.9c11.8,20.1,17.7,42.1,17.7,66
			c0,23.9-5.9,45.9-17.7,66c-11.8,20.1-27.8,36.1-47.9,47.9c-20.1,11.8-42.1,17.7-66,17.7h-30.6
			C104.9,320.6,102.9,319.8,101.3,318.3z"/>
		<path class="st1" d="M305.8,318.1c-1.4-1.4-2.1-3-2.1-4.7V64.8c0-2,0.7-3.6,2.1-4.9c1.4-1.3,3-1.9,4.7-1.9h169
			c2,0,3.6,0.6,4.9,1.9c1.3,1.3,1.9,2.9,1.9,4.9v31.7c0,1.8-0.6,3.3-1.9,4.7c-1.3,1.4-2.9,2.1-4.9,2.1H357.6c-1.8,0-3.3,0.6-4.7,1.9
			c-1.4,1.3-2.1,2.9-2.1,4.9v55.5v1.1c0,2.3,0.5,3.8,1.5,4.7c1,0.9,3.4,1.3,7.2,1.3h94.3c1.8,0,3.3,0.6,4.5,1.7
			c1.3,1.1,1.9,2.6,1.9,4.3v32.1c0,1.8-0.6,3.2-1.9,4.3c-1.3,1.1-2.8,1.7-4.5,1.7h-94.7c-3.3,0-5.5,0.9-6.6,2.8s-1.7,3.8-1.7,5.8v40
			c0,2.5,0.7,4.7,2.1,6.4c1.4,1.8,4.2,2.6,8.5,2.6h120.7c1.8,0,3.3,0.7,4.7,2.1c1.4,1.4,2.1,3.1,2.1,5.1v31.7c0,1.8-0.6,3.3-1.9,4.7
			c-1.3,1.4-2.9,2.1-4.9,2.1H310.5C308.7,320.2,307.1,319.5,305.8,318.1z"/>
		<path class="st1" d="M531.7,319.6c-1.4-1.4-2.1-3-2.1-4.7V64c0-1.8,0.7-3.3,2.1-4.7c1.4-1.4,3.1-2.1,5.1-2.1h79.2
			c15.6,0,30,3.7,43.2,11.1c13.2,7.4,23.6,17.5,31.3,30.4c7.7,12.8,11.5,26.9,11.5,42.3c0,13.1-3,25.3-9.1,36.6
			s-14.2,21.1-24.5,29.4c-1.5,1.3-2.3,2.9-2.3,4.9c0,0.8,0.1,1.4,0.4,1.9c0.2,0.5,0.4,0.9,0.4,1.1l43.8,97.7
			c0.8,1.8,1.1,3.4,1.1,4.9c0,2.8-1.6,4.1-4.9,4.1h-33.2c-2.8,0-4.8-0.3-6.2-0.8c-1.4-0.5-2.6-1.8-3.6-3.8l-39.6-88.3
			c-0.5-1.5-1.5-2.5-2.8-3c-1.4-0.5-3.8-0.9-7.4-1.1H584c-3.8,0-6.4,0.5-7.7,1.5c-1.4,1-2.1,2.9-2.1,5.7v83c0,1.8-0.7,3.3-2.1,4.7
			c-1.4,1.4-3.1,2.1-5.1,2.1h-30.2C534.8,321.7,533.1,321,531.7,319.6z M616.1,176.1c9.8,0,18.2-3.5,25.3-10.4
			c7-6.9,10.6-15.2,10.6-24.7c0-9.8-3.5-18.1-10.6-24.9c-7-6.8-15.5-10.2-25.3-10.2H581c-4.5,0-6.8,2.5-6.8,7.5V170
			c0,1.8,0.5,3.2,1.5,4.3c1,1.1,2.4,1.7,4.1,1.7H616.1z"/>
	</g>
	<path class="st2" d="M799.7,315.4c-1.4-1.4-2.1-3-2.1-4.7V62.1c0-2,0.7-3.6,2.1-4.9c1.4-1.3,3-1.9,4.7-1.9h169c2,0,3.6,0.6,4.9,1.9
		c1.3,1.3,1.9,2.9,1.9,4.9v31.7c0,1.8-0.6,3.3-1.9,4.7c-1.3,1.4-2.9,2.1-4.9,2.1H851.5c-1.8,0-3.3,0.6-4.7,1.9
		c-1.4,1.3-2.1,2.9-2.1,4.9v55.5v1.1c0,2.3,0.5,3.8,1.5,4.7c1,0.9,3.4,1.3,7.2,1.3h94.3c1.8,0,3.3,0.6,4.5,1.7
		c1.3,1.1,1.9,2.6,1.9,4.3v32.1c0,1.8-0.6,3.2-1.9,4.3c-1.3,1.1-2.8,1.7-4.5,1.7h-94.7c-3.3,0-5.5,0.9-6.6,2.8s-1.7,3.8-1.7,5.8v40
		c0,2.5,0.7,4.7,2.1,6.4c1.4,1.8,4.2,2.6,8.5,2.6H976c1.8,0,3.3,0.7,4.7,2.1c1.4,1.4,2.1,3.1,2.1,5.1v31.7c0,1.8-0.6,3.3-1.9,4.7
		c-1.3,1.4-2.9,2.1-4.9,2.1H804.4C802.6,317.5,801.1,316.8,799.7,315.4z"/>
	<path class="st2" d="M1021.3,314.1c0-2,0.5-3.6,1.5-4.9l74.3-119.2l-78.8-126c-1-1.8-1.5-3.6-1.5-5.7c0-2.8,1.3-4.1,3.8-4.1
		l38.9,0.4h2.3c4.3,0,7,1,8.3,3l54.7,88.3l55.1-88.3c0.8-1.3,1.9-2.1,3.6-2.5c1.6-0.4,4.2-0.6,7.7-0.6l37.7-0.4
		c2.5,0,3.8,1.4,3.8,4.1c0,2-0.5,3.9-1.5,5.7l-156.2,250.5c-2,2.8-5.7,4.2-10.9,4.2h-38.1C1022.8,318.6,1021.3,317.1,1021.3,314.1z
		 M1174.9,314.5l-25.7-41.1c-1.5-2.8-2.3-5-2.3-6.8c0-2.5,0.9-5,2.6-7.5c1.3-2,4-6.3,8.1-13c4.2-6.7,7.4-11.4,9.8-14.1
		c2.4-2.8,4.5-4.2,6.2-4.2c1.5,0,2.8,0.9,3.8,2.6l49,78.8c1,1.3,1.5,2.9,1.5,4.9c0,3-1.5,4.5-4.5,4.5h-38.1
		C1180.1,318.6,1176.6,317.2,1174.9,314.5z"/>
</g>
</svg>
