<?xml version="1.0" encoding="UTF-8"?>
<svg enable-background="new 0 0 1252 378" version="1.1" viewBox="0 0 1252 378" xml:space="preserve" xmlns="http://www.w3.org/2000/svg">
<style type="text/css">
	.st0{fill:#1A9DD9;}
	.st1{fill:#FFFFFF;}
	.st2{fill:#A3A3A3;}
</style>
<path class="st0" d="m746.6 372.2h-727.8c-5.5 0-10-4.5-10-10v-345.5c0-5.5 4.5-10 10-10h727.8c5.5 0 10 4.5 10 10v345.5c0 5.5-4.4 10-10 10z"/>


		<path class="st1" d="m101.3 318.3c-1.6-1.5-2.5-3.4-2.5-5.7v-32.8c0-2.5 0.8-4.5 2.5-6 1.6-1.5 3.6-2.3 5.8-2.3h30.6c15.1 0 28.9-3.7 41.5-11.1s22.6-17.4 30-30 11.1-26.4 11.1-41.5-3.7-28.9-11.1-41.5-17.4-22.6-30-30-26.4-11.1-41.5-11.1h-30.6c-1.3 0-2.3 0.4-3.2 1.3s-1.3 2-1.3 3.2v23c0 2.3-0.8 4.1-2.5 5.7-1.6 1.5-3.6 2.3-5.8 2.3h-32.8c-2 0-3.8-0.8-5.5-2.5-1.6-1.6-2.5-3.5-2.5-5.5v-68.3c0-2.3 0.8-4.2 2.5-5.8 1.6-1.6 3.5-2.5 5.5-2.5h76.2c23.9 0 45.9 5.9 66 17.7s36.1 27.8 47.9 47.9 17.7 42.1 17.7 66-5.9 45.9-17.7 66-27.8 36.1-47.9 47.9-42.1 17.7-66 17.7h-30.6c-2.2 0.2-4.2-0.6-5.8-2.1z"/>
		<path class="st1" d="m305.8 318.1c-1.4-1.4-2.1-3-2.1-4.7v-248.6c0-2 0.7-3.6 2.1-4.9s3-1.9 4.7-1.9h169c2 0 3.6 0.6 4.9 1.9s1.9 2.9 1.9 4.9v31.7c0 1.8-0.6 3.3-1.9 4.7s-2.9 2.1-4.9 2.1h-121.9c-1.8 0-3.3 0.6-4.7 1.9s-2.1 2.9-2.1 4.9v56.6c0 2.3 0.5 3.8 1.5 4.7s3.4 1.3 7.2 1.3h94.3c1.8 0 3.3 0.6 4.5 1.7 1.3 1.1 1.9 2.6 1.9 4.3v32.1c0 1.8-0.6 3.2-1.9 4.3s-2.8 1.7-4.5 1.7h-94.7c-3.3 0-5.5 0.9-6.6 2.8s-1.7 3.8-1.7 5.8v40c0 2.5 0.7 4.7 2.1 6.4 1.4 1.8 4.2 2.6 8.5 2.6h120.7c1.8 0 3.3 0.7 4.7 2.1s2.1 3.1 2.1 5.1v31.7c0 1.8-0.6 3.3-1.9 4.7s-2.9 2.1-4.9 2.1h-171.6c-1.8 0.1-3.4-0.6-4.7-2z"/>
		<path class="st1" d="m531.7 319.6c-1.4-1.4-2.1-3-2.1-4.7v-250.9c0-1.8 0.7-3.3 2.1-4.7s3.1-2.1 5.1-2.1h79.2c15.6 0 30 3.7 43.2 11.1s23.6 17.5 31.3 30.4c7.7 12.8 11.5 26.9 11.5 42.3 0 13.1-3 25.3-9.1 36.6s-14.2 21.1-24.5 29.4c-1.5 1.3-2.3 2.9-2.3 4.9 0 0.8 0.1 1.4 0.4 1.9 0.2 0.5 0.4 0.9 0.4 1.1l43.8 97.7c0.8 1.8 1.1 3.4 1.1 4.9 0 2.8-1.6 4.1-4.9 4.1h-33.2c-2.8 0-4.8-0.3-6.2-0.8s-2.6-1.8-3.6-3.8l-39.6-88.3c-0.5-1.5-1.5-2.5-2.8-3-1.4-0.5-3.8-0.9-7.4-1.1h-30.1c-3.8 0-6.4 0.5-7.7 1.5-1.4 1-2.1 2.9-2.1 5.7v83c0 1.8-0.7 3.3-2.1 4.7s-3.1 2.1-5.1 2.1h-30.2c-2 0.1-3.7-0.6-5.1-2zm84.4-143.5c9.8 0 18.2-3.5 25.3-10.4 7-6.9 10.6-15.2 10.6-24.7 0-9.8-3.5-18.1-10.6-24.9-7-6.8-15.5-10.2-25.3-10.2h-35.1c-4.5 0-6.8 2.5-6.8 7.5v56.6c0 1.8 0.5 3.2 1.5 4.3s2.4 1.7 4.1 1.7h36.3z"/>

	<path class="st2" d="m799.7 315.4c-1.4-1.4-2.1-3-2.1-4.7v-248.6c0-2 0.7-3.6 2.1-4.9s3-1.9 4.7-1.9h169c2 0 3.6 0.6 4.9 1.9s1.9 2.9 1.9 4.9v31.7c0 1.8-0.6 3.3-1.9 4.7s-2.9 2.1-4.9 2.1h-121.9c-1.8 0-3.3 0.6-4.7 1.9s-2.1 2.9-2.1 4.9v56.6c0 2.3 0.5 3.8 1.5 4.7s3.4 1.3 7.2 1.3h94.3c1.8 0 3.3 0.6 4.5 1.7 1.3 1.1 1.9 2.6 1.9 4.3v32.1c0 1.8-0.6 3.2-1.9 4.3s-2.8 1.7-4.5 1.7h-94.7c-3.3 0-5.5 0.9-6.6 2.8s-1.7 3.8-1.7 5.8v40c0 2.5 0.7 4.7 2.1 6.4 1.4 1.8 4.2 2.6 8.5 2.6h120.7c1.8 0 3.3 0.7 4.7 2.1s2.1 3.1 2.1 5.1v31.7c0 1.8-0.6 3.3-1.9 4.7s-2.9 2.1-4.9 2.1h-171.6c-1.8 0.1-3.3-0.6-4.7-2z"/>
	<path class="st2" d="m1021.3 314.1c0-2 0.5-3.6 1.5-4.9l74.3-119.2-78.8-126c-1-1.8-1.5-3.6-1.5-5.7 0-2.8 1.3-4.1 3.8-4.1l38.9 0.4h2.3c4.3 0 7 1 8.3 3l54.7 88.3 55.1-88.3c0.8-1.3 1.9-2.1 3.6-2.5 1.6-0.4 4.2-0.6 7.7-0.6l37.7-0.4c2.5 0 3.8 1.4 3.8 4.1 0 2-0.5 3.9-1.5 5.7l-156.2 250.5c-2 2.8-5.7 4.2-10.9 4.2h-38.1c-3.2 0-4.7-1.5-4.7-4.5zm153.6 0.4-25.7-41.1c-1.5-2.8-2.3-5-2.3-6.8 0-2.5 0.9-5 2.6-7.5 1.3-2 4-6.3 8.1-13 4.2-6.7 7.4-11.4 9.8-14.1 2.4-2.8 4.5-4.2 6.2-4.2 1.5 0 2.8 0.9 3.8 2.6l49 78.8c1 1.3 1.5 2.9 1.5 4.9 0 3-1.5 4.5-4.5 4.5h-38.1c-5.2 0-8.7-1.4-10.4-4.1z"/>

</svg>
